<?xml version="1.0" encoding="utf-8"?>
<!-- Generator: Adobe Illustrator 21.0.2, SVG Export Plug-In . SVG Version: 6.00 Build 0)  -->
<svg version="1.1" id="图层_1" xmlns="http://www.w3.org/2000/svg" xmlns:xlink="http://www.w3.org/1999/xlink" x="0px" y="0px"
	 viewBox="0 0 12.5 14" style="enable-background:new 0 0 12.5 14;" xml:space="preserve">
<style type="text/css">
	.st0{fill:#E5582C;}
	.st1{fill:#D6242B;}
	.st2{fill:#B4202C;}
	.st3{fill:#821A1F;}
</style>
<g>
	<g>
		<path class="st0" d="M5.5,4.8l2.4-0.3V4.1c0-0.4-0.3-0.7-0.7-0.8L0.8,2.8C0.4,2.7,0,3.1,0,3.6v8.6c0,0.5,0.4,0.8,0.8,0.8l6.4-0.5
			c0.4,0,0.7-0.4,0.7-0.8V11l-3.1-0.2V5.6C4.8,5.2,5.1,4.9,5.5,4.8z"/>
		<path class="st0" d="M9.5,0l-6,0.7c-0.4,0-0.7,0.4-0.7,0.8v8.4c0,0.4,0.3,0.8,0.7,0.8l1.2,0.1V5.6c0-0.4,0.3-0.7,0.7-0.8l2.4-0.3
			V11l1.7,0.1c0.5,0,0.8-0.3,0.8-0.8V0.8C10.4,0.3,10,0,9.5,0z"/>
		<path class="st1" d="M11.6,4L8,4.5V11l-3.1-0.2v2.2c0,0.4,0.3,0.8,0.7,0.8l6.1,0.3c0.5,0,0.8-0.3,0.8-0.8V4.8
			C12.5,4.4,12.1,4,11.6,4z"/>
		<g>
			<path class="st2" d="M4.8,5.7c0-0.4,0.3-0.7,0.7-0.8l2.4-0.3V4.2c0-0.4-0.3-0.7-0.7-0.8L2.9,3v7c0,0.4,0.3,0.8,0.7,0.8l1.2,0.1
				C4.8,10.9,4.8,5.7,4.8,5.7z"/>
		</g>
		<g>
			<path class="st3" d="M4.8,10.8v1.8l2.4-0.2c0.4,0,0.7-0.4,0.7-0.8V11L4.8,10.8z"/>
		</g>
		<g>
			<path class="st3" d="M7.9,4.5V11l1.7,0.1c0.5,0,0.8-0.3,0.8-0.8V4.2L7.9,4.5z"/>
		</g>
	</g>
</g>
</svg>
